<svg width="12" height="9" viewBox="0 0 12 9" fill="none" xmlns="http://www.w3.org/2000/svg">
<path d="M11.5304 1.24238L10.5001 0.212092C10.3588 0.0707151 10.187 0 9.98505 0C9.78291 0 9.6111 0.0707151 9.46982 0.212092L4.50003 5.1894L2.27273 2.95451C2.1313 2.81308 1.95959 2.74245 1.75763 2.74245C1.55555 2.74245 1.38384 2.81308 1.24241 2.95451L0.212119 3.98483C0.0706886 4.12623 0 4.29799 0 4.50005C0 4.70196 0.0706886 4.87387 0.212119 5.01525L2.95451 7.75759L3.98488 8.78788C4.12623 8.92937 4.29799 9 4.50003 9C4.70198 9 4.87374 8.92918 5.01517 8.78788L6.04552 7.75759L11.5304 2.27275C11.6717 2.13132 11.7425 1.95959 11.7425 1.75753C11.7426 1.55557 11.6717 1.38381 11.5304 1.24238Z" fill="white"/>
</svg>
