<svg width="16" height="16" viewBox="0 0 16 16" fill="none" xmlns="http://www.w3.org/2000/svg">
<path d="M1.08614 15.5C0.931452 15.5 0.781303 15.4387 0.670281 15.3269C0.534112 15.1898 0.474263 14.9944 0.510284 14.8046L1.01999 12.1184C1.02035 12.1165 1.0207 12.1146 1.02108 12.1128C1.27809 10.8269 1.90442 9.65708 2.83219 8.73036L8.17721 3.44754C8.40746 3.21998 8.77862 3.22215 9.00618 3.4524C9.23376 3.68265 9.23156 4.05379 9.00131 4.28137L3.65758 9.56282C2.89664 10.3242 2.38271 11.2843 2.17121 12.3397L1.82136 14.1835L3.67781 13.8443C4.7343 13.6322 5.69528 13.117 6.45675 12.3545L10.8616 8.00559C11.1622 7.70626 11.1652 7.2134 10.8665 6.9087L9.81097 5.82715C9.58485 5.59546 9.58937 5.22436 9.82108 4.99824C10.0528 4.77209 10.4239 4.7766 10.65 5.00835L11.7046 6.08894C12.4514 6.85073 12.444 8.08443 11.6871 8.8381L7.28194 13.1872C6.35569 14.113 5.1873 14.7381 3.90304 14.9948C3.89988 14.9954 3.89671 14.996 3.89355 14.9966L1.19151 15.4905C1.15646 15.4968 1.12117 15.5 1.08614 15.5V15.5ZM5.16423 12.2509C5.39316 12.022 5.39316 11.6508 5.16423 11.4219L4.57806 10.8357C4.00618 10.3076 3.22126 11.0935 3.74908 11.6647L4.33526 12.2509C4.44971 12.3653 4.59971 12.4225 4.74975 12.4225C4.89978 12.4225 5.04978 12.3653 5.16423 12.2509ZM14.0688 6.45157L14.5967 5.85658C15.8062 4.68246 15.8003 2.58354 14.5838 1.4162C13.4116 0.19458 11.3025 0.194609 10.1304 1.41623C10.1219 1.42464 9.73283 1.86404 9.73283 1.86404C9.51835 2.10654 9.54106 2.477 9.78354 2.69146C10.026 2.90591 10.3964 2.88323 10.611 2.64075L10.9713 2.23333C11.7089 1.47766 13.0234 1.48291 13.7548 2.2452C14.5216 2.98094 14.5216 4.30485 13.7547 5.04059C13.7465 5.04882 13.1918 5.67351 13.1918 5.67351C12.9769 5.91569 12.9991 6.28618 13.2413 6.50102C13.3529 6.60005 13.4917 6.64873 13.6301 6.64871C13.7919 6.64873 13.953 6.58212 14.0688 6.45157V6.45157Z" fill="white"/>
</svg>
